<svg id="Mesa_6" data-name="Mesa 6" xmlns="http://www.w3.org/2000/svg" viewBox="0 0 479.68 305.74"><defs><style>.cls-1{fill:#fff;stroke:#211915;stroke-miterlimit:10;stroke-width:8px;}</style></defs><title>Mesa-6</title><rect class="cls-1" x="41.31" y="41.31" width="397.07" height="223.13" rx="17.7"/><path class="cls-1" d="M198.68,147.53H121.34l-13.72-34a2.38,2.38,0,0,1,2.21-3.27H210.19a2.38,2.38,0,0,1,2.21,3.27Z" transform="translate(-16.16 -106.23)"/><path class="cls-1" d="M387.46,147.53H310.13l-13.72-34a2.38,2.38,0,0,1,2.2-3.27H399a2.38,2.38,0,0,1,2.21,3.27Z" transform="translate(-16.16 -106.23)"/><path class="cls-1" d="M121.34,370.66h77.34l13.72,34a2.38,2.38,0,0,1-2.21,3.27H109.83a2.38,2.38,0,0,1-2.21-3.27Z" transform="translate(-16.16 -106.23)"/><path class="cls-1" d="M310.13,370.66h77.33l13.72,34A2.38,2.38,0,0,1,399,408H298.61a2.38,2.38,0,0,1-2.2-3.27Z" transform="translate(-16.16 -106.23)"/><path class="cls-1" d="M57.47,220.43v77.34l-34,13.71a2.38,2.38,0,0,1-3.27-2.2V208.92a2.38,2.38,0,0,1,3.27-2.21Z" transform="translate(-16.16 -106.23)"/><path class="cls-1" d="M454.53,297.77V220.43l34-13.72a2.38,2.38,0,0,1,3.27,2.21V309.28a2.38,2.38,0,0,1-3.27,2.2Z" transform="translate(-16.16 -106.23)"/></svg>