<svg id="Mesa_10" data-name="Mesa 10" xmlns="http://www.w3.org/2000/svg" viewBox="0 0 479.68 305.74"><defs><style>.cls-1{fill:#fff;stroke:#211915;stroke-miterlimit:10;stroke-width:8px;}</style></defs><title>Mesa 10</title><rect class="cls-1" x="41.31" y="41.31" width="397.07" height="223.13" rx="17.7"/><path class="cls-1" d="M173,147.53H95.68L82,113.5a2.38,2.38,0,0,1,2.21-3.27H184.53a2.38,2.38,0,0,1,2.2,3.27Z" transform="translate(-16.16 -106.23)"/><path class="cls-1" d="M294.67,147.65H217.33l-13.72-34a2.38,2.38,0,0,1,2.21-3.26H306.18a2.38,2.38,0,0,1,2.21,3.26Z" transform="translate(-16.16 -106.23)"/><path class="cls-1" d="M95.68,370.66H173l13.72,34a2.38,2.38,0,0,1-2.2,3.27H84.17A2.38,2.38,0,0,1,82,404.7Z" transform="translate(-16.16 -106.23)"/><path class="cls-1" d="M217.33,370.66h77.34l13.72,34a2.38,2.38,0,0,1-2.21,3.27H205.82a2.38,2.38,0,0,1-2.21-3.27Z" transform="translate(-16.16 -106.23)"/><path class="cls-1" d="M57.47,161.43v77.33l-34,13.72a2.38,2.38,0,0,1-3.27-2.21V149.92a2.38,2.38,0,0,1,3.27-2.21Z" transform="translate(-16.16 -106.23)"/><path class="cls-1" d="M454.53,238.76V161.43l34-13.72a2.38,2.38,0,0,1,3.27,2.21V250.27a2.38,2.38,0,0,1-3.27,2.21Z" transform="translate(-16.16 -106.23)"/><path class="cls-1" d="M454.53,358.58V281.25l34-13.72a2.38,2.38,0,0,1,3.27,2.2V370.09a2.38,2.38,0,0,1-3.27,2.21Z" transform="translate(-16.16 -106.23)"/><path class="cls-1" d="M57.47,279.44v77.33l-34,13.72a2.38,2.38,0,0,1-3.27-2.21V267.92a2.38,2.38,0,0,1,3.27-2.2Z" transform="translate(-16.16 -106.23)"/><path class="cls-1" d="M420.21,147.53H342.88l-13.72-34a2.38,2.38,0,0,1,2.21-3.27H431.73a2.38,2.38,0,0,1,2.2,3.27Z" transform="translate(-16.16 -106.23)"/><path class="cls-1" d="M342.88,370.66h77.33l13.72,34a2.38,2.38,0,0,1-2.2,3.27H331.37a2.38,2.38,0,0,1-2.21-3.27Z" transform="translate(-16.16 -106.23)"/></svg>