<svg id="Mesa_3" data-name="Mesa 3" xmlns="http://www.w3.org/2000/svg" viewBox="0 0 347.58 310.21"><defs><style>.cls-1{fill:#fff;stroke:#211915;stroke-miterlimit:10;stroke-width:8px;}</style></defs><title>Mesa-3</title><path class="cls-1" d="M294.67,128.88H217.33l-13.72-34a2.39,2.39,0,0,1,2.21-3.27H306.18a2.39,2.39,0,0,1,2.21,3.27Z" transform="translate(-63.56 -87.57)"/><path class="cls-1" d="M217.33,356.48h77.34l13.72,34a2.38,2.38,0,0,1-2.21,3.26H205.82a2.38,2.38,0,0,1-2.21-3.26Z" transform="translate(-63.56 -87.57)"/><rect class="cls-1" x="41.31" y="41.31" width="302.27" height="227.6" rx="11.95"/><path class="cls-1" d="M104.86,204v77.34l-34,13.71a2.38,2.38,0,0,1-3.27-2.2V192.5a2.38,2.38,0,0,1,3.27-2.21Z" transform="translate(-63.56 -87.57)"/></svg>